<?xml version="1.0"?>
<svg width="192" height="192"
  xmlns="http://www.w3.org/2000/svg"
  xmlns:svg="http://www.w3.org/2000/svg" viewBox="0 0 192 192">
  <g>
    <path d="m15,96c0,-17.67 14.33,-32 32,-32c9.23,0 17.54,3.91 23.38,10.15c-2.69,3.53 -4.75,7.57 -6,11.95c-3.44,-6.03 -9.94,-10.1 -17.38,-10.1c-11.05,0 -20,8.95 -20,20s8.95,20 20,20c7.44,0 13.94,-4.07 17.38,-10.1c1.25,4.38 3.31,8.42 6,11.95c-5.84,6.24 -14.15,10.15 -23.38,10.15c-17.67,0 -32,-14.33 -32,-32z" fill="#fff" />
    <path d="m67,96c0,-17.67 14.33,-32 32,-32c9.23,0 17.54,3.91 23.38,10.15c-2.69,3.53 -4.75,7.57 -6,11.95c-3.44,-6.03 -9.94,-10.1 -17.38,-10.1c-11.05,0 -20,8.95 -20,20s8.95,20 20,20c7.44,0 13.94,-4.07 17.38,-10.1c1.25,4.38 3.31,8.42 6,11.95c-5.84,6.24 -14.15,10.15 -23.38,10.15c-17.67,0 -32,-14.33 -32,-32z" fill="#fff" />
    <path d="m119,96c0,-17.67 14.33,-32 32,-32c9.23,0 17.54,3.91 23.38,10.15c-2.69,3.53 -4.75,7.57 -6,11.95c-3.44,-6.03 -9.94,-10.1 -17.38,-10.1c-11.05,0 -20,8.95 -20,20s8.95,20 20,20c7.44,0 13.94,-4.07 17.38,-10.1c1.25,4.38 3.31,8.42 6,11.95c-5.84,6.24 -14.15,10.15 -23.38,10.15c-17.67,0 -32,-14.33 -32,-32z" fill="#fff" />
  </g>
</svg>
